<svg id="Layer_1" data-name="Layer 1" xmlns="http://www.w3.org/2000/svg" viewBox="0 0 1170.84 455.96"><title>logo-main</title><path d="M92.08,429.29c-10.53,15.15-13.48,18.1-23.27,18.1H58.65l-17.92-2.95V344.32l17.92-2.4v-6.09c-6.1.37-23.27.55-29.37.55-5.91,0-23.27-.18-29-.55v6.09l17.36,2.4V444.44L.28,446.84v5.91H100L106.67,416h-5.54Z" transform="translate(-0.28 -0.11)"/><path d="M187.76,439.63V373.88l-31.59,1.66v5.73l12.19,2.4V437.6A24.08,24.08,0,0,1,154.14,442c-5.54,0-8.87-1.48-11.45-4.07-2.77-2.77-3.7-6.83-3.7-14.41V373.88l-29.92,1.66v5.73l10.53,2.4v44.88c0,11.08,1.66,16.81,6.1,21.06,3.69,3.51,8.49,5.54,17.17,5.54a31.5,31.5,0,0,0,25.49-12.93L168.18,454l2.4,2L198.1,448v-4.81h-7.39C188.31,443.14,187.76,442.22,187.76,439.63Z" transform="translate(-0.28 -0.11)"/><path d="M244.65,406.2l-6.28-2.77c-11.27-4.8-15.52-8.13-15.52-15.14,0-5.73,4.06-10.53,12.38-10.53,12.56,0,18.28,11.63,20.87,20.31H262l-.93-21.42c-4.06-1.11-13.48-3.7-23.27-3.7-17,0-29.55,7.39-29.55,22.72,0,14.23,9.6,19.58,22.16,25.31l4.44,2c10.52,4.8,15.33,8.31,15.33,15.15,0,7.2-4.25,12-13.67,12-11.08,0-18.66-9.23-22.54-22.9h-5.91l.93,23.46A92,92,0,0,0,235.41,455c17.18,0,31.4-6.28,31.4-23.45C266.81,418.76,258.13,412.11,244.65,406.2Z" transform="translate(-0.28 -0.11)"/><path d="M306.15,372.58h-5.54l-24.2,9.06v3.51l10.35,7v53l-11.46,1.67v6.09c6.1-.37,14-.55,20.32-.55,5.73,0,16.26.18,22,.55v-6.09l-11.45-1.67Z" transform="translate(-0.28 -0.11)"/><circle cx="296.45" cy="339.6" r="11.82"/><path d="M365.26,443c-5.36,0-8.32-1.29-10.16-3.88-2.4-3.33-2.4-8.87-2.4-16.07V391.42h23.08v-14h-.73c-.93.74-2.22,1.48-5.55,1.48H352.7V362.8h-4.44c-5.54,7.75-18.28,19.94-26.78,25.12v3.5H333.3v37.87c0,9.79,1.3,16.07,5,20.32,3.14,3.51,8.13,5.35,15.33,5.35,16.62,0,23.46-8.86,26-13.85l-2.21-2.22C375.23,441.48,370.43,443,365.26,443Z" transform="translate(-0.28 -0.11)"/><path d="M449.67,443.51c-4.44,0-4.44-3.51-4.44-8.86,0,0,.37-39.16.37-41.19,0-14.41-8.68-20.51-21.05-20.51-6.1,0-12.56,1.67-14.78,3-4.06,3.69-11.64,10-16.07,13.3-5,3.69-8.5,7.2-8.5,12.19,0,2.59,1.11,4.25,4.07,3.69l9.42-2c2-.37,2.77-1.11,2.77-2.58v-2.41c0-7.75,4.25-13.66,12.93-13.66,8.12,0,12,5.17,12,12.74,0,6.28-.18,15.52-.18,15.52,0,1.66-.93,2-2,2.4-8.5,2.77-17.37,5.35-24.94,7.94-7,2.4-12.37,7.76-12.37,15.88,0,9.61,6.64,16.26,16.8,16.26,10,0,15.7-5,20.14-9.42l2.21-2.22h.37c.37,6.47,3,11.45,12,11.45,9.6,0,18.65-7.75,21.42-12.19l-2.4-3.32C455.58,441.48,453,443.51,449.67,443.51ZM426,438.71c-1.29,2.4-5.35,5.36-10.34,5.36-5.54,0-9.24-3.51-9.24-9.24a11,11,0,0,1,1.85-6.28c3.14-5,12.19-7.2,17.92-9.6Z" transform="translate(-0.28 -0.11)"/><path d="M545.16,399.55c0-11.08-1.66-16.81-6.1-21.05-3.69-3.51-8.49-5.55-17.17-5.55-12.2,0-22.17,6.84-26.42,12.93V373h-5.54L465.73,382v3.51l10.35,7v52.64l-11.45,1.67v6.09c6.09-.37,14-.55,20.31-.55,5.73,0,16.26.18,22,.55v-6.09l-11.45-1.67V390.5a26,26,0,0,1,14.78-4.43c5.54,0,9.23,1.48,11.82,4.06,2.77,2.77,3.69,6.84,3.69,14.41v40.63l-10.71,1.67v6.09c6.1-.37,14.41-.55,20.69-.55,5.72,0,15,.18,20.69.55v-6.09l-11.27-1.67Z" transform="translate(-0.28 -0.11)"/><path d="M593,372.58h-5.54l-24.2,9.06v3.51l10.34,7v53l-11.45,1.67v6.09c6.1-.37,14-.55,20.32-.55,5.73,0,16.25.18,22,.55v-6.09L593,445.17Z" transform="translate(-0.28 -0.11)"/><circle cx="583.3" cy="339.6" r="11.82"/><path d="M675,443.51c-4.44,0-4.44-3.51-4.44-8.86,0,0,.37-39.16.37-41.19,0-14.41-8.68-20.51-21.05-20.51-6.1,0-12.56,1.67-14.78,3-4.06,3.69-11.64,10-16.07,13.3-5,3.69-8.5,7.2-8.5,12.19,0,2.59,1.11,4.25,4.07,3.69l9.42-2c2-.37,2.77-1.11,2.77-2.58v-2.41c0-7.75,4.25-13.66,12.93-13.66,8.12,0,12,5.17,12,12.74,0,6.28-.18,15.52-.18,15.52,0,1.66-.93,2-2,2.4-8.5,2.77-17.37,5.35-24.94,7.94-7,2.4-12.37,7.76-12.37,15.88,0,9.61,6.65,16.26,16.8,16.26,10,0,15.7-5,20.14-9.42l2.21-2.22h.37c.37,6.47,3,11.45,12,11.45,9.6,0,18.65-7.75,21.43-12.19l-2.41-3.32C680.92,441.48,678.33,443.51,675,443.51Zm-23.65-4.8c-1.29,2.4-5.35,5.36-10.34,5.36-5.54,0-9.23-3.51-9.23-9.24a11,11,0,0,1,1.84-6.28c3.14-5,12.19-7.2,17.92-9.6Z" transform="translate(-0.28 -0.11)"/><path d="M765.33,335.83v4.43l17.18,2.4v48H722.84v-48l17.18-2.4v-4.43c-6.09.37-18.47.55-24.56.55-5.91,0-19.21-.18-24.94-.55v4.43l17.18,2.4V446.1l-17.18,2.4v4.43c6.1-.37,18.84-.55,24.94-.55,5.91,0,18.84.18,24.56.55V448.5l-17.18-2.4v-51h59.67v51l-17.18,2.4v4.43c6.09-.37,18.47-.55,24.56-.55,5.91,0,19.21.18,24.94.55V448.5l-17.18-2.4V342.66l17.18-2.4v-4.43c-6.1.37-18.84.55-24.94.55C784,336.38,771.05,336.2,765.33,335.83Z" transform="translate(-0.28 -0.11)"/><path d="M860.45,373c-19.39,0-37.31,14-37.31,40.82,0,24.94,14.22,41.19,37.13,41.19,22.35,0,37.12-15.7,37.12-41C897.39,389.21,881.88,373,860.45,373Zm1.29,78.32c-17.17,0-23.82-21.61-23.82-41.37,0-17.37,5.72-33.25,20.68-33.25,18.11,0,24,23.83,24,39.89C882.62,433,878,451.27,861.74,451.27Z" transform="translate(-0.28 -0.11)"/><path d="M1026.87,399.74c0-11.09-1.66-16.63-6.1-21.06-3.51-3.51-8.86-5.73-16.25-5.73-13.85,0-23.83,9.61-27,13.67a17.08,17.08,0,0,0-4.62-7.94c-3.51-3.51-8.86-5.73-16.25-5.73a32.52,32.52,0,0,0-25.49,12.75V373h-2.77l-21.61,6.84v1.66L918.63,387v60l-12.56,1.48v4.43c6.1-.37,12.19-.55,18.47-.55q8.6,0,17.18.55V448.5L931.19,447V388.29a29.47,29.47,0,0,1,18.47-6.1c6.1,0,10,1.48,12.75,4.43,3,3.14,4.06,7.76,4.06,16.07V447l-11.08,1.48v4.43c6.09-.37,11.08-.55,17.36-.55,5.73,0,12.74.18,18.47.55V448.5L979,447V399.74a56.77,56.77,0,0,0-.92-10.72c4.06-2.95,9.23-6.83,19.39-6.83,6.1,0,10,1.48,12.75,4.43,3,3.14,4.06,7.76,4.06,16.07V447l-11.08,1.48v4.43c6.09-.37,11.08-.55,17.36-.55,5.72,0,12.74.18,18.47.55V448.5L1026.87,447Z" transform="translate(-0.28 -0.11)"/><path d="M1109.62,400.48l.92-1.11c-.19-13.67-9.24-26.42-29-26.42a36,36,0,0,0-28.81,13.86c-5.91,7.39-9.42,17-9.42,28.44,0,25.31,17,39.71,36,39.71,20,0,27.89-14,31-22.34L1107.4,431c-2.4,4.44-9.05,15-22.53,15-18.48,0-28.08-16.44-28.08-35.09a60,60,0,0,1,1.11-11.45Zm-28.08-23.83c10.53,0,15,7.57,15,14.77,0,3.15-1.11,4.07-4.25,4.07H1059C1061.78,385.7,1069,376.65,1081.54,376.65Z" transform="translate(-0.28 -0.11)"/><path d="M1150.43,409.16l-6.28-3c-10.53-4.8-15-8.49-15-17.18,0-7.57,5-12.37,14-12.37,12.19,0,17.18,10.34,19.39,19.21h3.7l-.92-19c-3.7-1.11-10-3.88-20-3.88-13.49,0-26.23,6.65-26.23,21.62,0,13.85,9.23,17.91,20.87,23.45l4.25,2c11.08,5.36,15.7,9.42,15.7,16.81,0,7.95-5.54,14.41-15.52,14.41-10.9,0-17-8.5-21-22h-3.88l.92,21.43a67.19,67.19,0,0,0,22.54,4.24c16.07,0,28.07-6.83,28.07-22C1171.12,420.79,1162.62,414.7,1150.43,409.16Z" transform="translate(-0.28 -0.11)"/><path d="M500.21,175.89c0,2.85,1,5.23,4.46,5.23H574l.44,67.56c0,8,10.13,13.85,18,6,10.76-10.76,68.11-69.15,73-73.89,2.15-2.08,3.76-4.44,3.76-7.24V119.88c0-24.95-18-38.09-37.61-38.09-18.68,0-29.76,7.46-36.25,13.95l.13-84.92c-.14-7.24-11.45-14.93-18.4-8C564.15,15.76,521.24,59.61,507.35,73c-5.89,5.66-8.07,7.85-8.07,13.32l.92,81.1ZM619.79,98.1c20.77,0,28.29,11.47,28.29,26l.61,57.87c0,1.41,0,1.88-1,2.87-14.86,14.85-37,38.23-49.06,50.27-3.79,3.79-3,2.69-3-5.9l-.28-121.63C601.91,101.37,608.79,98.1,619.79,98.1ZM520.57,76.56c0-3.8.43-4.11,4.22-7.9l41.72-41.72c8.85-8.84,7.78-5.4,7.78.92L574.42,167c0,4.21,0,4.21-5.28,4.21l-48.57.33Z" transform="translate(-0.28 -0.11)"/></svg>